<?xml version="1.0" encoding="utf-8"?><!--Generator: Adobe Illustrator 18.1.1, SVG Export Plug-In . SVG Version: 6.00 Build 0)--><svg xmlns="http://www.w3.org/2000/svg" xmlns:xlink="http://www.w3.org/1999/xlink" id="Layer_1" width="512px" height="512px" x="0px" y="0px" enable-background="new 0 0 512 512" version="1.1" viewBox="0 0 512 512" xml:space="preserve"><g><path fill="#FCDF00" d="M512,472c0,22.1-17.9,40-40,40H40c-22.1,0-40-17.9-40-40V40C0,17.9,17.9,0,40,0h432c22.1,0,40,17.9,40,40
		V472z"/><path fill="#D40511" d="M215.9,327.9c3.2-6.5,5.9-12.1,7.2-14.6c5.8-11.6-0.2-27.9-20.2-27.9h-65.6l-11.3,23.1h61.2
		c4.8,0,6.5,1,5.1,4c-1.4,2.9-4.5,9.1-5.3,10.8c-1,2.1-1.5,4.6,1.7,4.6C190.6,327.9,215.9,327.9,215.9,327.9L215.9,327.9z"/><path fill="#D40511" d="M175.1,330c-3.2,0-3.5-2.2-2.7-3.8c0.7-1.4,5-10,5.8-11.7c1-2.1,0.7-4.2-4.2-4.2h-27.8l-20.9,42.5
		c0,0,40,0,55,0c15,0,26-5.5,33.4-20.6c0.4-0.7,0.7-1.5,1.1-2.2H175.1L175.1,330z"/><polygon fill="#D40511" points="219,330 207.8,352.9 241.9,352.9 253.2,330 219,330 	"/><polygon fill="#D40511" points="267.1,330 255.9,352.9 290,352.9 301.3,330 267.1,330 	"/><polygon fill="#D40511" points="302.4,327.9 323.2,285.4 289,285.4 277.7,308.4 263.8,308.4 275.1,285.4 240.9,285.4 220.1,327.9 
		302.4,327.9 	"/><polygon fill="#D40511" points="329.7,285.4 363.9,285.4 343,327.9 308.8,327.9 329.7,285.4 	"/><path fill="#D40511" d="M307.7,330h76.5L373,352.9c0,0-51.9,0-56.5,0c-11.8,0-15.6-9-11.4-17.7C305.7,334.2,307.7,330,307.7,330
		L307.7,330z"/><polygon fill="#D40511" points="134.1,330 130.8,336.8 49.4,336.8 52.7,330 134.1,330 	"/><polygon fill="#D40511" points="130.2,338.1 126.8,344.8 45.4,344.8 48.7,338.1 130.2,338.1 	"/><polygon fill="#D40511" points="126.2,346.1 122.9,352.9 41.4,352.9 44.8,346.1 126.2,346.1 	"/><polygon fill="#D40511" points="468.2,330 464.9,336.8 383.5,336.8 386.7,330 468.2,330 	"/><rect width="472.5" height="97.9" x="19.7" y="159.1" fill="#FFFFFF"/><path fill="#105DA5" fill-rule="evenodd" d="M184,176.7c0,31.7,4.7,64.3-26.2,64.3c-20.6,0-24-24.8-22.7-43.5
		c1.1-4.6-3.8-6.6-3.8-6.6s2.7-9.3,3.8-14.1c6.3,0,12.6,0,18.8,0c0,12.2-5.3,43.2,6.6,43.3c9.7,0.2,7.5-28.7,7.5-43.3
		C171.6,176.2,177.5,177,184,176.7z" clip-rule="evenodd"/><path fill="#105DA5" fill-rule="evenodd" d="M235.8,176.7c-0.9,6-3.1,12.3-3.8,17c-4.7,0-17.9,0-17.9,0v7.4
		c0,0,13.8,0,19.8,0c-0.4,4.8-2.8,12.2-2.8,12.2h-16.9v5.6c0,0,15.3,0,20.7,0c-0.9,6.3-3,12.3-3.8,18.8c-19,0-31.2,0-36.7,0
		c0-13.8-0.1-31.3-0.1-44.2c0-1.6-4.6-3.8-4.6-3.8l4.7-13.2C194.3,176.7,222.4,176.8,235.8,176.7z" clip-rule="evenodd"/><polygon fill="#299C48" fill-rule="evenodd" points="473,176.2 470.1,193.9 459.8,193.9 459.8,236.9 
		440,236.9 440,193.9 429.7,193.9 434.4,176.2 	" clip-rule="evenodd"/><path fill="#105DA5" fill-rule="evenodd" d="M82.3,205.9c9.1,3.6,10.8,16.9,6.6,24.5
		c-6.6,11.8-29.4,7.5-46.1,7.5c0-14.5,0-33.4,0-45.2c0-1.1-3.1-1.1-3.8-1.9c0.7-5.3,2.4-9.6,3.8-14.1
		C69.4,171.9,102.3,180.5,82.3,205.9z M61.6,199.3c4.3,0.5,7-0.5,8.5-2.8c0.2-1.8,0.2-1.8-0.9-3.8c-1.4-1.5-4.8-0.8-7.5-0.9
		C61.6,194.2,61.6,196.8,61.6,199.3z M61.6,221.9c5.3,0.2,10.5,0.4,10.4-4.7c0-6.7-5.3-4.7-10.4-4.7
		C61.6,215.6,61.6,218.7,61.6,221.9z" clip-rule="evenodd"/><path fill="#105DA5" fill-rule="evenodd" d="M116.2,176.7c0,12.7,0,26.8,0,40.9c4.2,0,11.1,0,14.1,0
		c-1.4,6.7-2.5,12.3-4.7,20.2c-9.1,0-19.1,0-28.2,0c0-12.4,0-33.4,0-44c0-1.6-2.1-2.9-2.9-4c1.7-3.7,2.2-8.4,2.8-13.2
		C103.7,176.7,109.9,176.7,116.2,176.7z" clip-rule="evenodd"/><path fill="#299C48" fill-rule="evenodd" d="M264,236.9c0-12.6-0.8-29.5-0.8-40.2c0-2.9-3.6-4.9-5.5-6.6
		c3.1-3.1,7.2-13.4,7.2-13.4c32.6-4.1,50.2,7.6,49.9,32C314.6,231,293.2,242.5,264,236.9z M283.8,219c14.2,1.4,13.7-25.6,0-24.5
		C284.2,204.4,283.8,212.4,283.8,219z" clip-rule="evenodd"/><path fill="#299C48" fill-rule="evenodd" d="M325.2,176.7c9.7,0,19.5,0,29.2,0c5.6,20.1,13.9,42.5,17.9,61.2
		c-6.6,0-13.2,0-19.8,0c-1.3-2.4-1.3-5.8-2.8-8c-5.6,0-10.2-0.5-15.1,0c-1.2,2.7-1.3,5.5-1.9,8c-9.1,0-13.8,0-20.7,0
		c3.4-14.8,7.8-28.6,12.2-42.4c-1.8-1.7-4.4-4.5-4.4-4.5C320,187,323.1,183.1,325.2,176.7z M337.4,215.3c3.1,0,6.3,0,9.4,0
		c-1.3-6.2-2.2-11.5-4.7-17.9C340.6,203.4,339.1,209.4,337.4,215.3z" clip-rule="evenodd"/><path fill="#299C48" fill-rule="evenodd" d="M416.5,217.1c3.1,7.6,8.1,13.2,11.3,20.7c-7.2,0-14.4,0-21.6,0
		c-2.9-4.6-5.6-10.4-8.5-15.1c0,3.9,0,9.9,0,15.1c-6.3,0-12.5,0-18.8,0c0-13.8,0-31.3,0-43.2c0-2-3.3-3.5-4.7-4.8
		c2.5-3.5,2.5-9.4,4.7-13.2c28.9-6,59.4,6.8,46.1,32.9C423.1,213.3,420,213.6,416.5,217.1z M397.7,204.9c12.1,3.4,12-13.6,0.9-11.3
		C398.6,196,397.7,201.2,397.7,204.9z" clip-rule="evenodd"/><polygon fill="#D40511" points="464.2,338.1 460.9,344.8 379.5,344.8 382.8,338.1 464.2,338.1 	"/><polygon fill="#D40511" points="460.3,346.1 456.9,352.9 375.5,352.9 378.8,346.1 460.3,346.1 	"/></g></svg>