<svg xmlns="http://www.w3.org/2000/svg" xmlns:xlink="http://www.w3.org/1999/xlink" width="160" zoomAndPan="magnify" viewBox="0 0 120 44.999999" height="60" preserveAspectRatio="xMidYMid meet" version="1.2"><defs><clipPath id="86abb98fd4"><path d="M 3.242188 18.4375 L 118.601562 18.4375 L 118.601562 43.570312 L 3.242188 43.570312 Z M 3.242188 18.4375 "/></clipPath><clipPath id="e6fe3ff0a1"><path d="M 5.492188 18.4375 L 116.320312 18.4375 C 117.5625 18.4375 118.570312 19.441406 118.570312 20.6875 L 118.570312 41.320312 C 118.570312 42.5625 117.5625 43.570312 116.320312 43.570312 L 5.492188 43.570312 C 4.25 43.570312 3.242188 42.5625 3.242188 41.320312 L 3.242188 20.6875 C 3.242188 19.441406 4.25 18.4375 5.492188 18.4375 Z M 5.492188 18.4375 "/></clipPath><clipPath id="fa09bb564b"><path d="M 0.566406 1.617188 L 31 1.617188 L 31 42.867188 L 0.566406 42.867188 Z M 0.566406 1.617188 "/></clipPath></defs><g id="eaac894471"><g clip-rule="nonzero" clip-path="url(#86abb98fd4)"><g clip-rule="nonzero" clip-path="url(#e6fe3ff0a1)"><path style=" stroke:none;fill-rule:nonzero;fill:#000000;fill-opacity:1;" d="M 3.242188 18.4375 L 118.601562 18.4375 L 118.601562 43.570312 L 3.242188 43.570312 Z M 3.242188 18.4375 "/></g></g><g style="fill:#fd7e14;fill-opacity:1;"><g transform="translate(17.528251, 38.188246)"><path style="stroke:none" d="M 1.828125 -1.109375 L 1.828125 -13.015625 C 1.828125 -13.367188 1.945312 -13.664062 2.1875 -13.90625 C 2.4375 -14.15625 2.734375 -14.28125 3.078125 -14.28125 L 3.34375 -14.28125 C 3.613281 -14.28125 3.84375 -14.210938 4.03125 -14.078125 C 4.21875 -13.953125 4.375 -13.796875 4.5 -13.609375 L 8.796875 -6.875 L 13.125 -13.625 C 13.394531 -14.0625 13.769531 -14.28125 14.25 -14.28125 L 14.515625 -14.28125 C 14.867188 -14.28125 15.164062 -14.15625 15.40625 -13.90625 C 15.65625 -13.664062 15.78125 -13.367188 15.78125 -13.015625 L 15.78125 -1.140625 C 15.78125 -0.785156 15.65625 -0.488281 15.40625 -0.25 C 15.164062 -0.0195312 14.867188 0.09375 14.515625 0.09375 C 14.179688 0.09375 13.890625 -0.0234375 13.640625 -0.265625 C 13.398438 -0.503906 13.28125 -0.796875 13.28125 -1.140625 L 13.28125 -9.65625 L 9.8125 -4.4375 C 9.675781 -4.238281 9.523438 -4.082031 9.359375 -3.96875 C 9.191406 -3.851562 8.992188 -3.796875 8.765625 -3.796875 C 8.535156 -3.796875 8.335938 -3.851562 8.171875 -3.96875 C 8.015625 -4.082031 7.867188 -4.238281 7.734375 -4.4375 L 4.28125 -9.609375 L 4.28125 -1.109375 C 4.28125 -0.765625 4.160156 -0.476562 3.921875 -0.25 C 3.679688 -0.0195312 3.390625 0.09375 3.046875 0.09375 C 2.691406 0.09375 2.398438 -0.0195312 2.171875 -0.25 C 1.941406 -0.476562 1.828125 -0.765625 1.828125 -1.109375 Z M 1.828125 -1.109375 "/></g></g><g style="fill:#fd7e14;fill-opacity:1;"><g transform="translate(33.02307, 38.188246)"><path style="stroke:none" d="M 1.828125 -13.0625 C 1.828125 -13.414062 1.945312 -13.707031 2.1875 -13.9375 C 2.4375 -14.175781 2.734375 -14.296875 3.078125 -14.296875 C 3.429688 -14.296875 3.722656 -14.175781 3.953125 -13.9375 C 4.191406 -13.707031 4.3125 -13.414062 4.3125 -13.0625 L 4.3125 -2.265625 L 10.75 -2.265625 C 11.0625 -2.265625 11.328125 -2.15625 11.546875 -1.9375 C 11.773438 -1.71875 11.890625 -1.453125 11.890625 -1.140625 C 11.890625 -0.828125 11.773438 -0.554688 11.546875 -0.328125 C 11.328125 -0.109375 11.0625 0 10.75 0 L 3.078125 0 C 2.734375 0 2.4375 -0.117188 2.1875 -0.359375 C 1.945312 -0.609375 1.828125 -0.90625 1.828125 -1.25 Z M 1.828125 -13.0625 "/></g></g><g style="fill:#fd7e14;fill-opacity:1;"><g transform="translate(43.467718, 38.188246)"><path style="stroke:none" d="M 0.703125 -13.046875 C 0.703125 -13.347656 0.8125 -13.613281 1.03125 -13.84375 C 1.257812 -14.082031 1.535156 -14.203125 1.859375 -14.203125 L 11.296875 -14.203125 C 11.609375 -14.203125 11.875 -14.082031 12.09375 -13.84375 C 12.320312 -13.613281 12.4375 -13.347656 12.4375 -13.046875 C 12.4375 -12.734375 12.320312 -12.460938 12.09375 -12.234375 C 11.875 -12.003906 11.609375 -11.890625 11.296875 -11.890625 L 7.828125 -11.890625 L 7.828125 -1.140625 C 7.828125 -0.785156 7.703125 -0.488281 7.453125 -0.25 C 7.210938 -0.0195312 6.921875 0.09375 6.578125 0.09375 C 6.222656 0.09375 5.921875 -0.0195312 5.671875 -0.25 C 5.429688 -0.488281 5.3125 -0.785156 5.3125 -1.140625 L 5.3125 -11.890625 L 1.859375 -11.890625 C 1.535156 -11.890625 1.257812 -12.003906 1.03125 -12.234375 C 0.8125 -12.460938 0.703125 -12.734375 0.703125 -13.046875 Z M 0.703125 -13.046875 "/></g></g><g style="fill:#fd7e14;fill-opacity:1;"><g transform="translate(54.50054, 38.188246)"><path style="stroke:none" d=""/></g></g><g style="fill:#fd7e14;fill-opacity:1;"><g transform="translate(56.649933, 38.188246)"><path style="stroke:none" d="M 0.859375 -1.046875 C 0.859375 -1.171875 0.910156 -1.363281 1.015625 -1.625 L 6.28125 -13.390625 C 6.4375 -13.703125 6.640625 -13.945312 6.890625 -14.125 C 7.140625 -14.3125 7.4375 -14.40625 7.78125 -14.40625 L 7.90625 -14.40625 C 8.257812 -14.40625 8.554688 -14.3125 8.796875 -14.125 C 9.046875 -13.945312 9.242188 -13.703125 9.390625 -13.390625 L 14.65625 -1.625 C 14.757812 -1.445312 14.8125 -1.269531 14.8125 -1.09375 C 14.8125 -0.757812 14.695312 -0.476562 14.46875 -0.25 C 14.25 -0.0195312 13.96875 0.09375 13.625 0.09375 C 13.070312 0.09375 12.664062 -0.191406 12.40625 -0.765625 L 11.25 -3.421875 L 4.359375 -3.421875 L 3.15625 -0.6875 C 2.945312 -0.164062 2.566406 0.09375 2.015625 0.09375 C 1.679688 0.09375 1.40625 -0.015625 1.1875 -0.234375 C 0.96875 -0.453125 0.859375 -0.722656 0.859375 -1.046875 Z M 10.296875 -5.640625 L 7.8125 -11.375 L 5.3125 -5.640625 Z M 10.296875 -5.640625 "/></g></g><g style="fill:#fd7e14;fill-opacity:1;"><g transform="translate(70.217979, 38.188246)"><path style="stroke:none" d="M 1 -5.328125 L 1 -5.375 C 1 -6.269531 1.132812 -7.0625 1.40625 -7.75 C 1.6875 -8.4375 2.054688 -9.015625 2.515625 -9.484375 C 2.972656 -9.960938 3.503906 -10.320312 4.109375 -10.5625 C 4.710938 -10.8125 5.332031 -10.9375 5.96875 -10.9375 C 6.851562 -10.9375 7.585938 -10.75 8.171875 -10.375 C 8.753906 -10 9.234375 -9.554688 9.609375 -9.046875 L 9.609375 -13.6875 C 9.609375 -14.039062 9.726562 -14.332031 9.96875 -14.5625 C 10.207031 -14.789062 10.492188 -14.90625 10.828125 -14.90625 C 11.179688 -14.90625 11.472656 -14.789062 11.703125 -14.5625 C 11.941406 -14.332031 12.0625 -14.039062 12.0625 -13.6875 L 12.0625 -1.109375 C 12.0625 -0.765625 11.941406 -0.476562 11.703125 -0.25 C 11.472656 -0.0195312 11.1875 0.09375 10.84375 0.09375 C 10.5 0.09375 10.207031 -0.0195312 9.96875 -0.25 C 9.726562 -0.476562 9.609375 -0.765625 9.609375 -1.109375 L 9.609375 -1.78125 C 9.222656 -1.21875 8.734375 -0.742188 8.140625 -0.359375 C 7.554688 0.0234375 6.832031 0.21875 5.96875 0.21875 C 5.34375 0.21875 4.726562 0.0976562 4.125 -0.140625 C 3.519531 -0.378906 2.988281 -0.734375 2.53125 -1.203125 C 2.070312 -1.679688 1.703125 -2.265625 1.421875 -2.953125 C 1.140625 -3.648438 1 -4.441406 1 -5.328125 Z M 6.546875 -1.90625 C 6.953125 -1.90625 7.34375 -1.984375 7.71875 -2.140625 C 8.101562 -2.304688 8.4375 -2.539062 8.71875 -2.84375 C 9 -3.15625 9.222656 -3.519531 9.390625 -3.9375 C 9.566406 -4.351562 9.65625 -4.816406 9.65625 -5.328125 L 9.65625 -5.375 C 9.65625 -5.882812 9.566406 -6.351562 9.390625 -6.78125 C 9.222656 -7.207031 9 -7.566406 8.71875 -7.859375 C 8.4375 -8.160156 8.101562 -8.390625 7.71875 -8.546875 C 7.34375 -8.710938 6.953125 -8.796875 6.546875 -8.796875 C 6.128906 -8.796875 5.734375 -8.71875 5.359375 -8.5625 C 4.992188 -8.40625 4.664062 -8.175781 4.375 -7.875 C 4.09375 -7.582031 3.867188 -7.222656 3.703125 -6.796875 C 3.546875 -6.378906 3.46875 -5.90625 3.46875 -5.375 L 3.46875 -5.328125 C 3.46875 -4.816406 3.546875 -4.347656 3.703125 -3.921875 C 3.867188 -3.492188 4.09375 -3.128906 4.375 -2.828125 C 4.664062 -2.535156 4.992188 -2.304688 5.359375 -2.140625 C 5.734375 -1.984375 6.128906 -1.90625 6.546875 -1.90625 Z M 6.546875 -1.90625 "/></g></g><g style="fill:#fd7e14;fill-opacity:1;"><g transform="translate(81.717285, 38.188246)"><path style="stroke:none" d="M 1.546875 -1.109375 L 1.546875 -9.59375 C 1.546875 -9.945312 1.660156 -10.238281 1.890625 -10.46875 C 2.117188 -10.707031 2.410156 -10.828125 2.765625 -10.828125 C 3.109375 -10.828125 3.398438 -10.707031 3.640625 -10.46875 C 3.878906 -10.238281 4 -9.945312 4 -9.59375 L 4 -9.09375 C 4.175781 -9.332031 4.363281 -9.554688 4.5625 -9.765625 C 4.769531 -9.984375 5.003906 -10.179688 5.265625 -10.359375 C 5.523438 -10.535156 5.820312 -10.675781 6.15625 -10.78125 C 6.488281 -10.882812 6.859375 -10.9375 7.265625 -10.9375 C 8.035156 -10.9375 8.691406 -10.757812 9.234375 -10.40625 C 9.773438 -10.0625 10.1875 -9.609375 10.46875 -9.046875 C 10.894531 -9.609375 11.398438 -10.0625 11.984375 -10.40625 C 12.566406 -10.757812 13.265625 -10.9375 14.078125 -10.9375 C 15.265625 -10.9375 16.1875 -10.578125 16.84375 -9.859375 C 17.5 -9.148438 17.828125 -8.140625 17.828125 -6.828125 L 17.828125 -1.109375 C 17.828125 -0.765625 17.710938 -0.476562 17.484375 -0.25 C 17.253906 -0.0195312 16.960938 0.09375 16.609375 0.09375 C 16.253906 0.09375 15.957031 -0.0195312 15.71875 -0.25 C 15.488281 -0.476562 15.375 -0.765625 15.375 -1.109375 L 15.375 -6.078125 C 15.375 -6.929688 15.179688 -7.582031 14.796875 -8.03125 C 14.421875 -8.476562 13.890625 -8.703125 13.203125 -8.703125 C 12.515625 -8.703125 11.957031 -8.472656 11.53125 -8.015625 C 11.113281 -7.566406 10.90625 -6.910156 10.90625 -6.046875 L 10.90625 -1.109375 C 10.90625 -0.765625 10.785156 -0.476562 10.546875 -0.25 C 10.316406 -0.0195312 10.03125 0.09375 9.6875 0.09375 C 9.34375 0.09375 9.050781 -0.0195312 8.8125 -0.25 C 8.570312 -0.476562 8.453125 -0.765625 8.453125 -1.109375 L 8.453125 -6.109375 C 8.453125 -6.953125 8.265625 -7.59375 7.890625 -8.03125 C 7.515625 -8.476562 6.976562 -8.703125 6.28125 -8.703125 C 5.59375 -8.703125 5.039062 -8.460938 4.625 -7.984375 C 4.207031 -7.515625 4 -6.867188 4 -6.046875 L 4 -1.109375 C 4 -0.765625 3.878906 -0.476562 3.640625 -0.25 C 3.398438 -0.0195312 3.109375 0.09375 2.765625 0.09375 C 2.421875 0.09375 2.128906 -0.0195312 1.890625 -0.25 C 1.660156 -0.476562 1.546875 -0.765625 1.546875 -1.109375 Z M 1.546875 -1.109375 "/></g></g><g style="fill:#fd7e14;fill-opacity:1;"><g transform="translate(98.87521, 38.188246)"><path style="stroke:none" d="M 1.6875 -9.59375 C 1.6875 -9.945312 1.800781 -10.238281 2.03125 -10.46875 C 2.257812 -10.707031 2.550781 -10.828125 2.90625 -10.828125 C 3.25 -10.828125 3.539062 -10.707031 3.78125 -10.46875 C 4.019531 -10.238281 4.140625 -9.945312 4.140625 -9.59375 L 4.140625 -1.109375 C 4.140625 -0.765625 4.019531 -0.476562 3.78125 -0.25 C 3.539062 -0.0195312 3.25 0.09375 2.90625 0.09375 C 2.5625 0.09375 2.269531 -0.0195312 2.03125 -0.25 C 1.800781 -0.476562 1.6875 -0.765625 1.6875 -1.109375 Z M 2.90625 -14.78125 C 3.289062 -14.78125 3.617188 -14.671875 3.890625 -14.453125 C 4.160156 -14.242188 4.296875 -13.957031 4.296875 -13.59375 L 4.296875 -13.46875 C 4.296875 -13.101562 4.160156 -12.804688 3.890625 -12.578125 C 3.617188 -12.359375 3.289062 -12.25 2.90625 -12.25 C 2.507812 -12.25 2.175781 -12.359375 1.90625 -12.578125 C 1.632812 -12.804688 1.5 -13.101562 1.5 -13.46875 L 1.5 -13.59375 C 1.5 -13.957031 1.632812 -14.242188 1.90625 -14.453125 C 2.175781 -14.671875 2.507812 -14.78125 2.90625 -14.78125 Z M 2.90625 -14.78125 "/></g></g><g style="fill:#fd7e14;fill-opacity:1;"><g transform="translate(102.566027, 38.188246)"><path style="stroke:none" d="M 2.765625 -10.828125 C 3.109375 -10.828125 3.398438 -10.707031 3.640625 -10.46875 C 3.878906 -10.238281 4 -9.945312 4 -9.59375 L 4 -9.0625 C 4.34375 -9.5625 4.773438 -10 5.296875 -10.375 C 5.816406 -10.75 6.5 -10.9375 7.34375 -10.9375 C 8.570312 -10.9375 9.515625 -10.566406 10.171875 -9.828125 C 10.828125 -9.097656 11.15625 -8.097656 11.15625 -6.828125 L 11.15625 -1.109375 C 11.15625 -0.765625 11.039062 -0.476562 10.8125 -0.25 C 10.582031 -0.0195312 10.289062 0.09375 9.9375 0.09375 C 9.582031 0.09375 9.285156 -0.0195312 9.046875 -0.25 C 8.816406 -0.476562 8.703125 -0.765625 8.703125 -1.109375 L 8.703125 -6.078125 C 8.703125 -6.929688 8.5 -7.582031 8.09375 -8.03125 C 7.695312 -8.476562 7.132812 -8.703125 6.40625 -8.703125 C 5.675781 -8.703125 5.09375 -8.472656 4.65625 -8.015625 C 4.21875 -7.554688 4 -6.898438 4 -6.046875 L 4 -1.109375 C 4 -0.765625 3.878906 -0.476562 3.640625 -0.25 C 3.398438 -0.0195312 3.109375 0.09375 2.765625 0.09375 C 2.421875 0.09375 2.128906 -0.0195312 1.890625 -0.25 C 1.660156 -0.476562 1.546875 -0.765625 1.546875 -1.109375 L 1.546875 -9.59375 C 1.546875 -9.945312 1.660156 -10.238281 1.890625 -10.46875 C 2.117188 -10.707031 2.410156 -10.828125 2.765625 -10.828125 Z M 2.765625 -10.828125 "/></g></g><g clip-rule="nonzero" clip-path="url(#fa09bb564b)"><path style=" stroke:none;fill-rule:nonzero;fill:#fd7e14;fill-opacity:1;" d="M 30.761719 18.898438 L 30.066406 12.757812 C 29.941406 11.679688 29.027344 10.863281 27.945312 10.863281 L 24.488281 10.863281 L 24.488281 9.109375 C 24.488281 4.996094 21.144531 1.65625 17.03125 1.65625 C 12.917969 1.65625 9.574219 4.996094 9.574219 9.109375 L 9.574219 10.863281 L 6.117188 10.863281 C 5.03125 10.863281 4.117188 11.679688 3.996094 12.757812 L 0.871094 40.171875 C 0.71875 41.484375 1.746094 42.628906 3.070312 42.628906 L 4.234375 42.628906 C 9.03125 22.03125 24.410156 19.175781 30.761719 18.898438 Z M 23.535156 13.101562 C 24.058594 13.101562 24.488281 13.527344 24.488281 14.050781 C 24.488281 14.574219 24.058594 15.003906 23.535156 15.003906 C 23.011719 15.003906 22.582031 14.574219 22.582031 14.050781 C 22.582031 13.527344 23.011719 13.101562 23.535156 13.101562 Z M 11.480469 9.121094 C 11.480469 6.0625 13.964844 3.570312 17.03125 3.570312 C 20.097656 3.570312 22.582031 6.0625 22.582031 9.121094 L 22.582031 10.871094 L 11.480469 10.871094 Z M 10.527344 13.101562 C 11.050781 13.101562 11.480469 13.527344 11.480469 14.050781 C 11.480469 14.574219 11.050781 15.003906 10.527344 15.003906 C 10.003906 15.003906 9.574219 14.574219 9.574219 14.050781 C 9.574219 13.527344 10.003906 13.101562 10.527344 13.101562 Z M 10.527344 13.101562 "/></g></g></svg>