<?xml version="1.0" encoding="UTF-8"?>
<svg width="512" height="512" viewBox="0 0 512 512" xmlns="http://www.w3.org/2000/svg">
  <!-- Background circle -->
  <circle cx="256" cy="256" r="240" fill="#6366F1" stroke="#4F46E5" stroke-width="8"/>
  
  <!-- Truck body -->
  <rect x="120" y="200" width="160" height="80" rx="8" fill="#FFF" stroke="#4F46E5" stroke-width="3"/>
  
  <!-- Truck cabin -->
  <rect x="120" y="180" width="80" height="100" rx="8" fill="#FFF" stroke="#4F46E5" stroke-width="3"/>
  
  <!-- Truck cargo area -->
  <rect x="300" y="200" width="80" height="80" rx="8" fill="#FFF" stroke="#4F46E5" stroke-width="3"/>
  
  <!-- Windows -->
  <rect x="130" y="190" width="30" height="25" rx="3" fill="#3B82F6"/>
  <rect x="165" y="190" width="30" height="25" rx="3" fill="#3B82F6"/>
  
  <!-- Door line -->
  <line x1="160" y1="180" x2="160" y2="280" stroke="#4F46E5" stroke-width="2"/>
  
  <!-- Wheels -->
  <circle cx="150" cy="310" r="25" fill="#374151" stroke="#1F2937" stroke-width="3"/>
  <circle cx="150" cy="310" r="15" fill="#6B7280"/>
  <circle cx="150" cy="310" r="8" fill="#374151"/>
  
  <circle cx="250" cy="310" r="25" fill="#374151" stroke="#1F2937" stroke-width="3"/>
  <circle cx="250" cy="310" r="15" fill="#6B7280"/>
  <circle cx="250" cy="310" r="8" fill="#374151"/>
  
  <circle cx="340" cy="310" r="25" fill="#374151" stroke="#1F2937" stroke-width="3"/>
  <circle cx="340" cy="310" r="15" fill="#6B7280"/>
  <circle cx="340" cy="310" r="8" fill="#374151"/>
  
  <!-- Headlights -->
  <circle cx="110" cy="220" r="8" fill="#FEF3C7" stroke="#F59E0B" stroke-width="2"/>
  <circle cx="110" cy="250" r="8" fill="#FEF3C7" stroke="#F59E0B" stroke-width="2"/>
  
  <!-- Cargo details -->
  <rect x="310" y="210" width="60" height="15" rx="3" fill="#6366F1"/>
  <rect x="310" y="230" width="60" height="15" rx="3" fill="#6366F1"/>
  <rect x="310" y="250" width="60" height="15" rx="3" fill="#6366F1"/>
  
  <!-- Generic package icon -->
  <rect x="320" y="155" width="40" height="30" rx="5" fill="#10B981" stroke="#059669" stroke-width="2"/>
  <line x1="330" y1="155" x2="330" y2="185" stroke="#059669" stroke-width="2"/>
  <line x1="320" y1="170" x2="360" y2="170" stroke="#059669" stroke-width="2"/>
</svg> 