<?xml version="1.0" encoding="utf-8"?><!--Generator: Adobe Illustrator 18.1.1, SVG Export Plug-In . SVG Version: 6.00 Build 0)--><svg xmlns="http://www.w3.org/2000/svg" xmlns:xlink="http://www.w3.org/1999/xlink" id="Vector" width="512px" height="512px" x="0px" y="0px" enable-background="new 0 0 512 512" version="1.1" viewBox="0 0 512 512" xml:space="preserve"><path d="M512,472c0,22.1-17.9,40-40,40H40c-22.1,0-40-17.9-40-40V40C0,17.9,17.9,0,40,0h432c22.1,0,40,17.9,40,40V472z"/><polygon fill="#58585A" points="330,122.2 374.6,245.7 249.2,389.8 315.1,389.8 434.7,245.7 390.1,122.2 "/><polygon fill="#A7A9AC" points="242.1,122.2 286.7,245.7 161.3,389.8 227.2,389.8 346.8,245.7 302.2,122.2 "/><polygon fill="#E7E7E8" points="158.1,122.2 202.7,245.7 77.3,389.8 143.2,389.8 262.8,245.7 218.2,122.2 "/></svg>